<svg xmlns="http://www.w3.org/2000/svg" width="170.039" height="52.195" viewBox="0 0 171.031 52.5">
  <defs>
    <style>
      .cls-1 {
        fill-rule: evenodd;
      }
    </style>
  </defs>
  <path id="Gravity_Creation" data-name="Gravity Creation" class="cls-1" d="M405.688,39.728a1.208,1.208,0,0,0,.272-0.88V28.96a0.987,0.987,0,0,0-1.152-1.152h-4.96A0.987,0.987,0,0,0,398.7,28.96v4.992h-3.1a1.46,1.46,0,0,1-1.1-.384,1.659,1.659,0,0,1-.368-1.184V24.736a1.474,1.474,0,0,1,.48-1.2,2.268,2.268,0,0,1,1.472-.4h6.656a0.987,0.987,0,0,0,1.152-1.152V18.112a0.987,0.987,0,0,0-1.152-1.152h-8q-4,0-5.936,1.6a6.026,6.026,0,0,0-1.936,4.928v9.984a6.024,6.024,0,0,0,1.936,4.928q1.937,1.6,5.936,1.6h10.08A1.207,1.207,0,0,0,405.688,39.728ZM393.224,36.9a4.184,4.184,0,0,1-1.76-.72,2.506,2.506,0,0,1-.88-1.28,6.565,6.565,0,0,1-.24-1.9v-8.96a4.284,4.284,0,0,1,1.024-3.232q1.024-.96,4.1-0.96H401v0.32h-5.536q-2.815,0-3.808.88a3.842,3.842,0,0,0-.992,2.992v8.96a3.523,3.523,0,0,0,1.1,2.944q1.1,0.864,4.336.864h6.048V30.688h0.32V37.12H396.1A15.128,15.128,0,0,1,393.224,36.9Zm20.76-16.736v9.248h6.976a3.057,3.057,0,0,0,2.656-.96,4.7,4.7,0,0,0,.672-2.72v-2.24a3.5,3.5,0,0,0-.816-2.4,3.174,3.174,0,0,0-2.512-.928h-6.976Zm5.856,2.56a1.255,1.255,0,0,1,1.12.432,1.891,1.891,0,0,1,.288,1.072v1.088a1.89,1.89,0,0,1-.288,1.072,1.255,1.255,0,0,1-1.12.432h-2.4v-4.1h2.4Zm-6.176,14.4V19.84h7.3a3.439,3.439,0,0,1,2.752,1.04,3.857,3.857,0,0,1,.9,2.608V25.7a6.475,6.475,0,0,1-.384,2.416,2.244,2.244,0,0,1-1.536,1.3h0.352a4.19,4.19,0,0,1,2.912.88,3.279,3.279,0,0,1,.96,2.544V37.12h-0.32V32.832a3.019,3.019,0,0,0-.864-2.352,3.91,3.91,0,0,0-2.688-.784h-9.056V37.12h-0.32Zm3.5,2.608a1.208,1.208,0,0,0,.272-0.88V32.576h4.48a1.152,1.152,0,0,1,.944.336,1.642,1.642,0,0,1,.272,1.04v4.9A0.987,0.987,0,0,0,424.288,40h4.96a0.987,0.987,0,0,0,1.152-1.152V32.064a4.709,4.709,0,0,0-1.072-3.232,4.211,4.211,0,0,0-2.8-1.408,2.492,2.492,0,0,0,1.392-1.36,5.85,5.85,0,0,0,.4-2.288V22.3a5.492,5.492,0,0,0-1.36-3.856q-1.36-1.488-4.944-1.488H411.36a0.987,0.987,0,0,0-1.152,1.152V38.848A0.987,0.987,0,0,0,411.36,40h4.928A1.208,1.208,0,0,0,417.168,39.728ZM437.44,31.3h12.48V30.3a8.342,8.342,0,0,0-.144-1.6,10.009,10.009,0,0,0-.368-1.376L447.2,22.112a7.989,7.989,0,0,0-.736-1.392,1.441,1.441,0,0,0-1.28-.56h-3.136a1.514,1.514,0,0,0-1.344.56,7.007,7.007,0,0,0-.7,1.36l-2.048,5.248a10.009,10.009,0,0,0-.368,1.376,8.342,8.342,0,0,0-.144,1.6V31.3Zm5.392-8.032a0.492,0.492,0,0,1,.336-0.128h0.8a0.492,0.492,0,0,1,.336.128,1.214,1.214,0,0,1,.272.416l1.5,4.864h-5.024l1.5-4.864A1.214,1.214,0,0,1,442.832,23.264Zm7.088,8.352H437.44v5.5h-0.32V30.3a8.782,8.782,0,0,1,.144-1.648,9.436,9.436,0,0,1,.4-1.456l2.048-5.248a6.57,6.57,0,0,1,.8-1.5,1.786,1.786,0,0,1,1.536-.608h3.136a1.7,1.7,0,0,1,1.488.608,7.847,7.847,0,0,1,.816,1.536L449.7,27.2a9.436,9.436,0,0,1,.4,1.456,8.782,8.782,0,0,1,.144,1.648V37.12h-0.32v-5.5Zm-9.184,2.752H446.4v4.48a1.126,1.126,0,0,0,.3.88,1.385,1.385,0,0,0,.944.272h4.832a0.987,0.987,0,0,0,1.152-1.152V30.4a9.449,9.449,0,0,0-.3-2.208,24.358,24.358,0,0,0-.944-2.912L449.6,18.016a1.506,1.506,0,0,0-.592-0.8A1.839,1.839,0,0,0,448,16.96h-8.608a1.9,1.9,0,0,0-1.04.256,1.5,1.5,0,0,0-.592.8l-2.784,7.264a24.358,24.358,0,0,0-.944,2.912,9.449,9.449,0,0,0-.3,2.208v8.448A0.987,0.987,0,0,0,434.88,40h4.7a0.987,0.987,0,0,0,1.152-1.152v-4.48Zm31.112,5.408a1.486,1.486,0,0,0,.624-0.832l3.136-7.84q0.288-.7.48-1.232t0.32-1.008a6.056,6.056,0,0,0,.176-1.008q0.048-.528.048-1.3V18.112a0.987,0.987,0,0,0-1.152-1.152h-5.024a0.987,0.987,0,0,0-1.152,1.152v8.8a3.227,3.227,0,0,1-.064.64,4.7,4.7,0,0,1-.192.672l-1.5,4.512a0.942,0.942,0,0,1-.224.432,0.57,0.57,0,0,1-.384.112h-0.352a0.566,0.566,0,0,1-.384-0.112,0.942,0.942,0,0,1-.224-0.432l-1.5-4.48a4.578,4.578,0,0,1-.192-0.672,3.227,3.227,0,0,1-.064-0.64V18.112a1.1,1.1,0,0,0-.32-0.88,1.4,1.4,0,0,0-.928-0.272H457.88a0.987,0.987,0,0,0-1.152,1.152V26.56q0,0.768.048,1.3a6.056,6.056,0,0,0,.176,1.008q0.127,0.48.32,1.008t0.48,1.232l3.136,7.84a1.486,1.486,0,0,0,.624.832A2.043,2.043,0,0,0,462.52,40h8.32A2.043,2.043,0,0,0,471.848,39.776ZM460.664,19.84v6.912a9.359,9.359,0,0,0,.128,1.584,6.773,6.773,0,0,0,.384,1.392l2.112,5.12a6.22,6.22,0,0,0,.72,1.392,1.481,1.481,0,0,0,1.3.56h2.816a1.483,1.483,0,0,0,1.3-.56,6.22,6.22,0,0,0,.72-1.392l2.112-5.12a6.773,6.773,0,0,0,.384-1.392,9.463,9.463,0,0,0,.128-1.584V19.84h0.32v6.912a11.173,11.173,0,0,1-.112,1.648,6.281,6.281,0,0,1-.4,1.456l-2.112,5.12a6.445,6.445,0,0,1-.864,1.536,1.76,1.76,0,0,1-1.472.608H465.3a1.76,1.76,0,0,1-1.472-.608,6.445,6.445,0,0,1-.864-1.536l-2.112-5.12a6.281,6.281,0,0,1-.4-1.456,11.173,11.173,0,0,1-.112-1.648V19.84h0.32ZM494.48,40a0.987,0.987,0,0,0,1.152-1.152V35.04a0.987,0.987,0,0,0-1.152-1.152h-3.1V23.136h3.1a0.987,0.987,0,0,0,1.152-1.152V18.112a0.987,0.987,0,0,0-1.152-1.152H480.848a0.987,0.987,0,0,0-1.152,1.152v3.872a0.987,0.987,0,0,0,1.152,1.152h3.168V33.888h-3.168A0.987,0.987,0,0,0,479.7,35.04v3.808A0.987,0.987,0,0,0,480.848,40H494.48Zm-11.9-2.88V36.8h4.96V20.16h-4.96V19.84h10.176v0.32h-4.9V36.8h4.9v0.32H482.576Zm28.392,2.608a1.208,1.208,0,0,0,.272-0.88V23.136h4.7a0.987,0.987,0,0,0,1.152-1.152V18.112a0.987,0.987,0,0,0-1.152-1.152h-16.9a0.987,0.987,0,0,0-1.152,1.152v3.872a0.987,0.987,0,0,0,1.152,1.152h4.7V38.848A0.987,0.987,0,0,0,504.9,40h5.184A1.208,1.208,0,0,0,510.968,39.728ZM507.336,20.16h-6.56V19.84h13.44v0.32h-6.56V37.12h-0.32V20.16Zm25.432,19.568a1.208,1.208,0,0,0,.272-0.88V34.784l4.864-6.592a7.264,7.264,0,0,0,.96-1.728,7.137,7.137,0,0,0,.256-2.208V18.112a0.987,0.987,0,0,0-1.152-1.152H533.2a0.987,0.987,0,0,0-1.152,1.152V23.36q0,0.32-.032.672a1.376,1.376,0,0,1-.256.672l-1.472,2.3a1.27,1.27,0,0,1-.336.416,0.712,0.712,0,0,1-.432.128H529.2a0.712,0.712,0,0,1-.432-0.128,1.246,1.246,0,0,1-.336-0.416l-1.472-2.3a1.376,1.376,0,0,1-.256-0.672c-0.022-.235-0.032-0.459-0.032-0.672V18.112a0.987,0.987,0,0,0-1.152-1.152h-4.928a0.987,0.987,0,0,0-1.152,1.152v6.144a7.6,7.6,0,0,0,.24,2.208,6.368,6.368,0,0,0,.976,1.728l4.9,6.56v4.1A0.987,0.987,0,0,0,526.7,40h5.184A1.207,1.207,0,0,0,532.768,39.728Zm-3.312-8.08V37.12h-0.32V31.648h-0.32a2.5,2.5,0,0,1-1.264-.32A3.536,3.536,0,0,1,526.48,30.3l-3.1-4.32a2.23,2.23,0,0,1-.416-1.12,13.413,13.413,0,0,1-.064-1.344V19.84h0.32v3.68a11.694,11.694,0,0,0,.064,1.264,2.355,2.355,0,0,0,.384,1.072l3.1,4.32a2.372,2.372,0,0,0,.96.9,2.528,2.528,0,0,0,1.088.256h0.864a2.258,2.258,0,0,0,1.1-.272,3.318,3.318,0,0,0,.976-0.88l3.2-4.32a2.008,2.008,0,0,0,.384-1.04,12.609,12.609,0,0,0,.064-1.3V19.84h0.32v3.68q0,0.7-.048,1.328a2.13,2.13,0,0,1-.432,1.136l-3.2,4.32a3.558,3.558,0,0,1-1.072,1.024,2.563,2.563,0,0,1-1.3.32h-0.224Zm-126.04,37.08a1.208,1.208,0,0,0,.272-0.88V64.04a0.987,0.987,0,0,0-1.152-1.152H396.1a2.411,2.411,0,0,1-1.472-.368,1.378,1.378,0,0,1-.48-1.168V53.736a1.474,1.474,0,0,1,.48-1.2,2.268,2.268,0,0,1,1.472-.4h6.432a0.987,0.987,0,0,0,1.152-1.152V47.112a0.987,0.987,0,0,0-1.152-1.152h-7.808q-4,0-5.936,1.616a6.074,6.074,0,0,0-1.936,4.944v9.952a6.024,6.024,0,0,0,1.936,4.928q1.937,1.6,5.936,1.6h7.808A1.207,1.207,0,0,0,403.416,68.728Zm-2.64-2.608h-5.344q-3.1,0-4.112-.96a4.227,4.227,0,0,1-1.008-3.168v-8.96a4.284,4.284,0,0,1,1.024-3.232q1.024-.96,4.1-0.96h5.344v0.32h-5.344q-2.816,0-3.808.88a3.842,3.842,0,0,0-.992,2.992v8.96a3.813,3.813,0,0,0,.96,2.944q0.96,0.864,3.84.864h5.344v0.32Zm10.208-16.96v9.248h6.976a3.057,3.057,0,0,0,2.656-.96,4.7,4.7,0,0,0,.672-2.72v-2.24a3.5,3.5,0,0,0-.816-2.4,3.174,3.174,0,0,0-2.512-.928h-6.976Zm5.856,2.56a1.255,1.255,0,0,1,1.12.432,1.891,1.891,0,0,1,.288,1.072v1.088a1.89,1.89,0,0,1-.288,1.072,1.255,1.255,0,0,1-1.12.432h-2.4v-4.1h2.4Zm-6.176,14.4V48.84h7.3a3.439,3.439,0,0,1,2.752,1.04,3.857,3.857,0,0,1,.9,2.608V54.7a6.475,6.475,0,0,1-.384,2.416,2.244,2.244,0,0,1-1.536,1.3h0.352a4.19,4.19,0,0,1,2.912.88,3.279,3.279,0,0,1,.96,2.544V66.12h-0.32V61.832a3.019,3.019,0,0,0-.864-2.352,3.91,3.91,0,0,0-2.688-.784h-9.056V66.12h-0.32Zm3.5,2.608a1.208,1.208,0,0,0,.272-0.88V61.576h4.48a1.152,1.152,0,0,1,.944.336,1.642,1.642,0,0,1,.272,1.04v4.9A0.987,0.987,0,0,0,421.288,69h4.96a0.987,0.987,0,0,0,1.152-1.152V61.064a4.709,4.709,0,0,0-1.072-3.232,4.211,4.211,0,0,0-2.8-1.408,2.492,2.492,0,0,0,1.392-1.36,5.85,5.85,0,0,0,.4-2.288V51.3a5.492,5.492,0,0,0-1.36-3.856q-1.36-1.488-4.944-1.488H408.36a0.987,0.987,0,0,0-1.152,1.152V67.848A0.987,0.987,0,0,0,408.36,69h4.928A1.208,1.208,0,0,0,414.168,68.728Zm33.92,0a1.208,1.208,0,0,0,.272-0.88V64.1a0.987,0.987,0,0,0-1.152-1.152h-8.832V60.2h6.24a0.987,0.987,0,0,0,1.152-1.152V55.624a0.987,0.987,0,0,0-1.152-1.152h-6.24V52.008h8.832a0.987,0.987,0,0,0,1.152-1.152V47.112a0.987,0.987,0,0,0-1.152-1.152H432.36a0.987,0.987,0,0,0-1.152,1.152V67.848A0.987,0.987,0,0,0,432.36,69h14.848A1.207,1.207,0,0,0,448.088,68.728ZM445.48,66.12H434.7V48.84H445.48v0.32H435.016v8.032h7.872v0.32h-7.872V65.8H445.48v0.32Zm9.96-5.824h12.48V59.3a8.342,8.342,0,0,0-.144-1.6,10.009,10.009,0,0,0-.368-1.376L465.2,51.112a7.989,7.989,0,0,0-.736-1.392,1.441,1.441,0,0,0-1.28-.56h-3.136a1.514,1.514,0,0,0-1.344.56,7.007,7.007,0,0,0-.7,1.36l-2.048,5.248a9.869,9.869,0,0,0-.368,1.376,8.342,8.342,0,0,0-.144,1.6V60.3Zm5.392-8.032a0.492,0.492,0,0,1,.336-0.128h0.8a0.492,0.492,0,0,1,.336.128,1.214,1.214,0,0,1,.272.416l1.5,4.864h-5.024l1.5-4.864A1.214,1.214,0,0,1,460.832,52.264Zm7.088,8.352H455.44v5.5h-0.32V59.3a8.782,8.782,0,0,1,.144-1.648,9.436,9.436,0,0,1,.4-1.456l2.048-5.248a6.609,6.609,0,0,1,.8-1.5,1.786,1.786,0,0,1,1.536-.608h3.136a1.7,1.7,0,0,1,1.488.608,7.847,7.847,0,0,1,.816,1.536L467.7,56.2a9.436,9.436,0,0,1,.4,1.456,8.782,8.782,0,0,1,.144,1.648V66.12h-0.32v-5.5Zm-9.184,2.752H464.4v4.48a1.126,1.126,0,0,0,.3.88,1.385,1.385,0,0,0,.944.272h4.832a0.987,0.987,0,0,0,1.152-1.152V59.4a9.449,9.449,0,0,0-.3-2.208,24.358,24.358,0,0,0-.944-2.912L467.6,47.016a1.506,1.506,0,0,0-.592-0.8A1.839,1.839,0,0,0,466,45.96h-8.608a1.9,1.9,0,0,0-1.04.256,1.5,1.5,0,0,0-.592.8l-2.784,7.264a24.178,24.178,0,0,0-.944,2.912,9.449,9.449,0,0,0-.3,2.208v8.448A0.987,0.987,0,0,0,452.88,69h4.7a0.987,0.987,0,0,0,1.152-1.152v-4.48Zm27.232,5.36a1.208,1.208,0,0,0,.272-0.88V52.136h4.7a0.987,0.987,0,0,0,1.152-1.152V47.112a0.987,0.987,0,0,0-1.152-1.152h-16.9a0.987,0.987,0,0,0-1.152,1.152v3.872a0.987,0.987,0,0,0,1.152,1.152h4.7V67.848A0.987,0.987,0,0,0,479.9,69h5.184A1.208,1.208,0,0,0,485.968,68.728ZM482.336,49.16h-6.56V48.84h13.44v0.32h-6.56V66.12h-0.32V49.16ZM509.48,69a0.987,0.987,0,0,0,1.152-1.152V64.04a0.987,0.987,0,0,0-1.152-1.152h-3.1V52.136h3.1a0.987,0.987,0,0,0,1.152-1.152V47.112a0.987,0.987,0,0,0-1.152-1.152H495.848a0.987,0.987,0,0,0-1.152,1.152v3.872a0.987,0.987,0,0,0,1.152,1.152h3.168V62.888h-3.168A0.987,0.987,0,0,0,494.7,64.04v3.808A0.987,0.987,0,0,0,495.848,69H509.48Zm-11.9-2.88V65.8h4.96V49.16h-4.96V48.84h10.176v0.32h-4.9V65.8h4.9v0.32H497.576Zm36.152-14.08a7.846,7.846,0,0,0-.432-2.672A4.564,4.564,0,0,0,531.76,47.3a8.059,8.059,0,0,0-3.04-1.344,25.455,25.455,0,0,0-9.84,0,8.063,8.063,0,0,0-3.056,1.344,4.564,4.564,0,0,0-1.536,2.064,7.846,7.846,0,0,0-.432,2.672V62.952a7.844,7.844,0,0,0,.432,2.672,4.466,4.466,0,0,0,1.536,2.048A8.23,8.23,0,0,0,518.88,69a25.455,25.455,0,0,0,9.84,0,8.226,8.226,0,0,0,3.04-1.328,4.466,4.466,0,0,0,1.536-2.048,7.844,7.844,0,0,0,.432-2.672V52.04Zm-4.864,13.3q-1.376,1.2-5.12,1.2t-5.088-1.2a3.987,3.987,0,0,1-1.344-3.12v-9.44a3.987,3.987,0,0,1,1.344-3.12q1.344-1.2,5.088-1.2t5.12,1.2a3.946,3.946,0,0,1,1.376,3.12v9.44A3.946,3.946,0,0,1,528.864,65.336Zm-9.952-.224q1.279,1.1,4.832,1.1t4.864-1.1a3.6,3.6,0,0,0,1.312-2.9v-9.44a3.6,3.6,0,0,0-1.312-2.9q-1.312-1.1-4.864-1.1t-4.832,1.1a3.641,3.641,0,0,0-1.28,2.9v9.44A3.64,3.64,0,0,0,518.912,65.112Zm2.208-11.92a1.351,1.351,0,0,1,.48-1.04,5.859,5.859,0,0,1,4.416,0,1.351,1.351,0,0,1,.48,1.04V61.8a1.384,1.384,0,0,1-.48,1.072,5.859,5.859,0,0,1-4.416,0,1.384,1.384,0,0,1-.48-1.072V53.192Zm33.088,9.152V48.84h0.32V66.12h-0.32v-3.3l-12.1-13.568a0.6,0.6,0,0,0-.08-0.064,0.16,0.16,0,0,0-.08-0.032,0.051,0.051,0,0,0-.048.032,0.139,0.139,0,0,0-.016.064V66.12h-0.32V49.192A0.338,0.338,0,0,1,541.7,48.9a0.426,0.426,0,0,1,.256-0.1,0.4,0.4,0,0,1,.224.064,1.932,1.932,0,0,1,.256.224Zm-9.168,6.384a1.208,1.208,0,0,0,.272-0.88V57.288l5.472,6.624v3.936A0.987,0.987,0,0,0,551.936,69h4.8a0.987,0.987,0,0,0,1.152-1.152V47.112a0.987,0.987,0,0,0-1.152-1.152h-4.8a0.987,0.987,0,0,0-1.152,1.152v6.816l-6.208-7.1a2.505,2.505,0,0,0-.848-0.672,2.551,2.551,0,0,0-1.04-.192H539.36a0.987,0.987,0,0,0-1.152,1.152V67.848A0.987,0.987,0,0,0,539.36,69h4.8A1.207,1.207,0,0,0,545.04,68.728Z" transform="translate(-386.844 -16.969)"/>
</svg>
